 http://www.imdb.com/title/tt0292963/

Source: Before.The.Devil.Knows.Youre.Dead.LIMITED.720p.DTS.BluRay.x264-REFiNED

Subs: Arabic, Brazilian, Bulgarian, Danish, Dutch, English, Finnish, French, Greek, Hebrew, Norwegian, Polish, Portuguese, Romanian, Slovenian, Spanish, Swedish and Turkish.

Sample and Screens included.

General
Complete name                    : Before the Devil Knows Youre Dead-720p MP4 AAC x264 BRRip 2006-CC.mp4
Format                           : MPEG-4
Format profile                   : Base Media
Codec ID                         : isom
File size                        : 2.36 GiB
Duration                         : 1h 56mn
Overall bit rate                 : 2 891 Kbps
Encoded date                     : UTC 2012-08-14 13:41:56

Video
ID                               : 1
Format                           : AVC
Format/Info                      : Advanced Video Codec
Format profile                   : High@L3.1
Format settings, CABAC           : Yes
Format settings, ReFrames        : 5 frames
Codec ID                         : avc1
Codec ID/Info                    : Advanced Video Coding
Duration                         : 1h 56mn
Bit rate mode                    : Variable
Bit rate                         : 2 502 Kbps
Nominal bit rate                 : 2 570 Kbps
Maximum bit rate                 : 25.5 Mbps
Width                            : 1 280 pixels
Height                           : 688 pixels
Display aspect ratio             : 1.860
Frame rate mode                  : Variable
Frame rate                       : 23.976 fps
Minimum frame rate               : 15.873 fps
Maximum frame rate               : 24.390 fps
Resolution                       : 24 bits
Colorimetry                      : 4:2:0
Scan type                        : Progressive
Bits/(Pixel*Frame)               : 0.118
Stream size                      : 2.04 GiB (87%)
Writing library                  : x264 core 112

Audio
ID                               : 2
Format                           : AAC
Format/Info                      : Advanced Audio Codec
Format version                   : Version 4
Format profile                   : LC
Format settings, SBR             : No
Codec ID                         : 40
Duration                         : 1h 56mn
Bit rate mode                    : Variable
Bit rate                         : 384 Kbps
Maximum bit rate                 : 594 Kbps
Channel(s)                       : 6 channels
Channel positions                : Front: L C R, Rear: L R, LFE
Sampling rate                    : 48.0 KHz
Resolution                       : 16 bits
Stream size                      : 321 MiB (13%)
Language                         : English


Enjoy...

Requested by DreamExtractor.

Coming up soon:  The Manchurian Candidate, The Recruit, The Bourne Trilogy, Cliffhanger...